<mxfile host="Electron" modified="2023-10-14T15:52:05.359Z" agent="Mozilla/5.0 (Windows NT 10.0; Win64; x64) AppleWebKit/537.36 (KHTML, like Gecko) draw.io/22.0.2 Chrome/114.0.5735.289 Electron/25.8.4 Safari/537.36" etag="RBLMx6GcDwoWMSdxgZrP" version="22.0.2" type="device">
  <diagram name="Page-1" id="V9PKvjRgcZwMMycN8FtU">
    <mxGraphModel dx="4395" dy="3150" grid="1" gridSize="10" guides="1" tooltips="1" connect="1" arrows="1" fold="1" page="1" pageScale="1" pageWidth="850" pageHeight="1100" math="0" shadow="0">
      <root>
        <mxCell id="0" />
        <mxCell id="1" parent="0" />
        <mxCell id="xmGOlnowos6n24Aj_uHa-1" value="Baylor" style="shape=cylinder3;whiteSpace=wrap;html=1;boundedLbl=1;backgroundOutline=1;size=15;" parent="1" vertex="1">
          <mxGeometry x="70" y="80" width="60" height="80" as="geometry" />
        </mxCell>
        <mxCell id="xmGOlnowos6n24Aj_uHa-2" value="TCU" style="shape=cylinder3;whiteSpace=wrap;html=1;boundedLbl=1;backgroundOutline=1;size=15;" parent="1" vertex="1">
          <mxGeometry x="70" y="250" width="60" height="80" as="geometry" />
        </mxCell>
        <mxCell id="xmGOlnowos6n24Aj_uHa-3" value="OSU" style="shape=cylinder3;whiteSpace=wrap;html=1;boundedLbl=1;backgroundOutline=1;size=15;" parent="1" vertex="1">
          <mxGeometry x="70" y="430" width="60" height="80" as="geometry" />
        </mxCell>
        <mxCell id="xmGOlnowos6n24Aj_uHa-4" value="Texas Tech" style="shape=cylinder3;whiteSpace=wrap;html=1;boundedLbl=1;backgroundOutline=1;size=15;" parent="1" vertex="1">
          <mxGeometry x="70" y="570" width="60" height="80" as="geometry" />
        </mxCell>
        <mxCell id="xmGOlnowos6n24Aj_uHa-5" value="Kansas" style="shape=cylinder3;whiteSpace=wrap;html=1;boundedLbl=1;backgroundOutline=1;size=15;" parent="1" vertex="1">
          <mxGeometry x="70" y="680" width="60" height="80" as="geometry" />
        </mxCell>
        <mxCell id="xmGOlnowos6n24Aj_uHa-6" value="K-State" style="shape=cylinder3;whiteSpace=wrap;html=1;boundedLbl=1;backgroundOutline=1;size=15;" parent="1" vertex="1">
          <mxGeometry x="70" y="790" width="60" height="80" as="geometry" />
        </mxCell>
        <mxCell id="xmGOlnowos6n24Aj_uHa-8" style="edgeStyle=orthogonalEdgeStyle;rounded=0;orthogonalLoop=1;jettySize=auto;html=1;entryX=0;entryY=0.5;entryDx=0;entryDy=0;entryPerimeter=0;" parent="1" source="xmGOlnowos6n24Aj_uHa-7" target="xmGOlnowos6n24Aj_uHa-1" edge="1">
          <mxGeometry relative="1" as="geometry" />
        </mxCell>
        <mxCell id="xmGOlnowos6n24Aj_uHa-9" style="edgeStyle=orthogonalEdgeStyle;rounded=0;orthogonalLoop=1;jettySize=auto;html=1;" parent="1" source="xmGOlnowos6n24Aj_uHa-7" target="xmGOlnowos6n24Aj_uHa-2" edge="1">
          <mxGeometry relative="1" as="geometry" />
        </mxCell>
        <mxCell id="xmGOlnowos6n24Aj_uHa-10" style="edgeStyle=orthogonalEdgeStyle;rounded=0;orthogonalLoop=1;jettySize=auto;html=1;" parent="1" source="xmGOlnowos6n24Aj_uHa-7" target="xmGOlnowos6n24Aj_uHa-3" edge="1">
          <mxGeometry relative="1" as="geometry" />
        </mxCell>
        <mxCell id="xmGOlnowos6n24Aj_uHa-11" style="edgeStyle=orthogonalEdgeStyle;rounded=0;orthogonalLoop=1;jettySize=auto;html=1;entryX=0;entryY=0;entryDx=0;entryDy=52.5;entryPerimeter=0;" parent="1" source="xmGOlnowos6n24Aj_uHa-7" target="xmGOlnowos6n24Aj_uHa-4" edge="1">
          <mxGeometry relative="1" as="geometry" />
        </mxCell>
        <mxCell id="xmGOlnowos6n24Aj_uHa-12" style="edgeStyle=orthogonalEdgeStyle;rounded=0;orthogonalLoop=1;jettySize=auto;html=1;entryX=0;entryY=0.5;entryDx=0;entryDy=0;entryPerimeter=0;" parent="1" source="xmGOlnowos6n24Aj_uHa-7" target="xmGOlnowos6n24Aj_uHa-5" edge="1">
          <mxGeometry relative="1" as="geometry" />
        </mxCell>
        <mxCell id="xmGOlnowos6n24Aj_uHa-13" style="edgeStyle=orthogonalEdgeStyle;rounded=0;orthogonalLoop=1;jettySize=auto;html=1;entryX=0;entryY=0.5;entryDx=0;entryDy=0;entryPerimeter=0;" parent="1" source="xmGOlnowos6n24Aj_uHa-7" target="xmGOlnowos6n24Aj_uHa-6" edge="1">
          <mxGeometry relative="1" as="geometry" />
        </mxCell>
        <mxCell id="xmGOlnowos6n24Aj_uHa-17" style="edgeStyle=orthogonalEdgeStyle;rounded=0;orthogonalLoop=1;jettySize=auto;html=1;entryX=0;entryY=0;entryDx=0;entryDy=27.5;entryPerimeter=0;" parent="1" source="xmGOlnowos6n24Aj_uHa-7" target="xmGOlnowos6n24Aj_uHa-16" edge="1">
          <mxGeometry relative="1" as="geometry">
            <mxPoint x="10" y="60" as="targetPoint" />
          </mxGeometry>
        </mxCell>
        <mxCell id="xmGOlnowos6n24Aj_uHa-19" style="edgeStyle=orthogonalEdgeStyle;rounded=0;orthogonalLoop=1;jettySize=auto;html=1;entryX=0;entryY=0;entryDx=0;entryDy=27.5;entryPerimeter=0;" parent="1" source="xmGOlnowos6n24Aj_uHa-7" target="xmGOlnowos6n24Aj_uHa-18" edge="1">
          <mxGeometry relative="1" as="geometry" />
        </mxCell>
        <mxCell id="xmGOlnowos6n24Aj_uHa-20" style="edgeStyle=orthogonalEdgeStyle;rounded=0;orthogonalLoop=1;jettySize=auto;html=1;entryX=0;entryY=1;entryDx=0;entryDy=-15;entryPerimeter=0;" parent="1" source="xmGOlnowos6n24Aj_uHa-7" target="xmGOlnowos6n24Aj_uHa-14" edge="1">
          <mxGeometry relative="1" as="geometry" />
        </mxCell>
        <mxCell id="xmGOlnowos6n24Aj_uHa-22" style="edgeStyle=orthogonalEdgeStyle;rounded=0;orthogonalLoop=1;jettySize=auto;html=1;entryX=0;entryY=0;entryDx=0;entryDy=52.5;entryPerimeter=0;" parent="1" source="xmGOlnowos6n24Aj_uHa-7" target="xmGOlnowos6n24Aj_uHa-15" edge="1">
          <mxGeometry relative="1" as="geometry" />
        </mxCell>
        <mxCell id="xmGOlnowos6n24Aj_uHa-24" style="edgeStyle=orthogonalEdgeStyle;rounded=0;orthogonalLoop=1;jettySize=auto;html=1;entryX=0;entryY=0;entryDx=0;entryDy=27.5;entryPerimeter=0;" parent="1" source="xmGOlnowos6n24Aj_uHa-7" target="xmGOlnowos6n24Aj_uHa-23" edge="1">
          <mxGeometry relative="1" as="geometry" />
        </mxCell>
        <mxCell id="xmGOlnowos6n24Aj_uHa-27" style="edgeStyle=orthogonalEdgeStyle;rounded=0;orthogonalLoop=1;jettySize=auto;html=1;entryX=0;entryY=0;entryDx=0;entryDy=27.5;entryPerimeter=0;" parent="1" source="xmGOlnowos6n24Aj_uHa-7" target="xmGOlnowos6n24Aj_uHa-26" edge="1">
          <mxGeometry relative="1" as="geometry" />
        </mxCell>
        <mxCell id="xmGOlnowos6n24Aj_uHa-7" value="&lt;b&gt;Big 12&lt;/b&gt;" style="whiteSpace=wrap;html=1;aspect=fixed;" parent="1" vertex="1">
          <mxGeometry x="-250" y="300" width="80" height="80" as="geometry" />
        </mxCell>
        <mxCell id="xmGOlnowos6n24Aj_uHa-14" value="&lt;br&gt;BYU" style="shape=cylinder3;whiteSpace=wrap;html=1;boundedLbl=1;backgroundOutline=1;size=15;" parent="1" vertex="1">
          <mxGeometry x="70" y="890" width="60" height="80" as="geometry" />
        </mxCell>
        <mxCell id="xmGOlnowos6n24Aj_uHa-15" value="Cincinatti" style="shape=cylinder3;whiteSpace=wrap;html=1;boundedLbl=1;backgroundOutline=1;size=15;" parent="1" vertex="1">
          <mxGeometry x="80" y="1010" width="60" height="80" as="geometry" />
        </mxCell>
        <mxCell id="xmGOlnowos6n24Aj_uHa-16" value="Central Florida" style="shape=cylinder3;whiteSpace=wrap;html=1;boundedLbl=1;backgroundOutline=1;size=15;" parent="1" vertex="1">
          <mxGeometry x="70" y="-50" width="60" height="80" as="geometry" />
        </mxCell>
        <mxCell id="xmGOlnowos6n24Aj_uHa-18" value="Houston" style="shape=cylinder3;whiteSpace=wrap;html=1;boundedLbl=1;backgroundOutline=1;size=15;" parent="1" vertex="1">
          <mxGeometry x="70" y="-170" width="60" height="80" as="geometry" />
        </mxCell>
        <mxCell id="xmGOlnowos6n24Aj_uHa-23" value="Iowa State" style="shape=cylinder3;whiteSpace=wrap;html=1;boundedLbl=1;backgroundOutline=1;size=15;" parent="1" vertex="1">
          <mxGeometry x="70" y="-270" width="60" height="80" as="geometry" />
        </mxCell>
        <mxCell id="xmGOlnowos6n24Aj_uHa-133" style="edgeStyle=orthogonalEdgeStyle;rounded=0;orthogonalLoop=1;jettySize=auto;html=1;entryX=0;entryY=0.5;entryDx=0;entryDy=0;" parent="1" source="xmGOlnowos6n24Aj_uHa-25" target="xmGOlnowos6n24Aj_uHa-52" edge="1">
          <mxGeometry relative="1" as="geometry" />
        </mxCell>
        <mxCell id="xmGOlnowos6n24Aj_uHa-134" style="edgeStyle=orthogonalEdgeStyle;rounded=0;orthogonalLoop=1;jettySize=auto;html=1;entryX=0.139;entryY=0.05;entryDx=0;entryDy=0;entryPerimeter=0;" parent="1" source="xmGOlnowos6n24Aj_uHa-25" target="xmGOlnowos6n24Aj_uHa-49" edge="1">
          <mxGeometry relative="1" as="geometry" />
        </mxCell>
        <mxCell id="xmGOlnowos6n24Aj_uHa-136" style="edgeStyle=orthogonalEdgeStyle;rounded=0;orthogonalLoop=1;jettySize=auto;html=1;entryX=0;entryY=0.125;entryDx=0;entryDy=0;entryPerimeter=0;" parent="1" source="xmGOlnowos6n24Aj_uHa-25" target="xmGOlnowos6n24Aj_uHa-47" edge="1">
          <mxGeometry relative="1" as="geometry" />
        </mxCell>
        <mxCell id="xmGOlnowos6n24Aj_uHa-25" value="football" style="ellipse;whiteSpace=wrap;html=1;aspect=fixed;" parent="1" vertex="1">
          <mxGeometry x="320" y="-490" width="120" height="120" as="geometry" />
        </mxCell>
        <mxCell id="xmGOlnowos6n24Aj_uHa-31" style="edgeStyle=orthogonalEdgeStyle;rounded=0;orthogonalLoop=1;jettySize=auto;html=1;" parent="1" source="xmGOlnowos6n24Aj_uHa-26" target="xmGOlnowos6n24Aj_uHa-25" edge="1">
          <mxGeometry relative="1" as="geometry" />
        </mxCell>
        <mxCell id="xmGOlnowos6n24Aj_uHa-32" style="edgeStyle=orthogonalEdgeStyle;rounded=0;orthogonalLoop=1;jettySize=auto;html=1;entryX=0;entryY=0.5;entryDx=0;entryDy=0;" parent="1" source="xmGOlnowos6n24Aj_uHa-26" target="xmGOlnowos6n24Aj_uHa-28" edge="1">
          <mxGeometry relative="1" as="geometry" />
        </mxCell>
        <mxCell id="xmGOlnowos6n24Aj_uHa-33" style="edgeStyle=orthogonalEdgeStyle;rounded=0;orthogonalLoop=1;jettySize=auto;html=1;entryX=0;entryY=0.5;entryDx=0;entryDy=0;" parent="1" source="xmGOlnowos6n24Aj_uHa-26" target="xmGOlnowos6n24Aj_uHa-29" edge="1">
          <mxGeometry relative="1" as="geometry" />
        </mxCell>
        <mxCell id="xmGOlnowos6n24Aj_uHa-34" style="edgeStyle=orthogonalEdgeStyle;rounded=0;orthogonalLoop=1;jettySize=auto;html=1;entryX=0;entryY=0.5;entryDx=0;entryDy=0;" parent="1" source="xmGOlnowos6n24Aj_uHa-26" target="xmGOlnowos6n24Aj_uHa-30" edge="1">
          <mxGeometry relative="1" as="geometry" />
        </mxCell>
        <mxCell id="xmGOlnowos6n24Aj_uHa-26" value="West Verginia" style="shape=cylinder3;whiteSpace=wrap;html=1;boundedLbl=1;backgroundOutline=1;size=15;" parent="1" vertex="1">
          <mxGeometry x="80" y="-400" width="60" height="80" as="geometry" />
        </mxCell>
        <mxCell id="xmGOlnowos6n24Aj_uHa-28" value="basketball" style="ellipse;whiteSpace=wrap;html=1;aspect=fixed;" parent="1" vertex="1">
          <mxGeometry x="340" y="-320" width="100" height="100" as="geometry" />
        </mxCell>
        <mxCell id="xmGOlnowos6n24Aj_uHa-29" value="baseball" style="ellipse;whiteSpace=wrap;html=1;aspect=fixed;" parent="1" vertex="1">
          <mxGeometry x="340" y="-160" width="90" height="90" as="geometry" />
        </mxCell>
        <mxCell id="xmGOlnowos6n24Aj_uHa-30" value="Track" style="ellipse;whiteSpace=wrap;html=1;aspect=fixed;" parent="1" vertex="1">
          <mxGeometry x="360" y="-10" width="80" height="80" as="geometry" />
        </mxCell>
        <mxCell id="xmGOlnowos6n24Aj_uHa-62" value="" style="edgeStyle=orthogonalEdgeStyle;rounded=0;orthogonalLoop=1;jettySize=auto;html=1;" parent="1" source="xmGOlnowos6n24Aj_uHa-35" target="xmGOlnowos6n24Aj_uHa-61" edge="1">
          <mxGeometry relative="1" as="geometry" />
        </mxCell>
        <mxCell id="xmGOlnowos6n24Aj_uHa-65" style="edgeStyle=orthogonalEdgeStyle;rounded=0;orthogonalLoop=1;jettySize=auto;html=1;entryX=0;entryY=0.25;entryDx=0;entryDy=0;" parent="1" source="xmGOlnowos6n24Aj_uHa-35" target="xmGOlnowos6n24Aj_uHa-64" edge="1">
          <mxGeometry relative="1" as="geometry" />
        </mxCell>
        <mxCell id="xmGOlnowos6n24Aj_uHa-35" value="QB" style="rhombus;whiteSpace=wrap;html=1;" parent="1" vertex="1">
          <mxGeometry x="960" y="-780" width="80" height="120" as="geometry" />
        </mxCell>
        <mxCell id="xmGOlnowos6n24Aj_uHa-42" value="Center" style="rhombus;whiteSpace=wrap;html=1;" parent="1" vertex="1">
          <mxGeometry x="1040" y="-470" width="80" height="80" as="geometry" />
        </mxCell>
        <mxCell id="xmGOlnowos6n24Aj_uHa-43" value="RG" style="rhombus;whiteSpace=wrap;html=1;" parent="1" vertex="1">
          <mxGeometry x="1070" y="-320" width="80" height="80" as="geometry" />
        </mxCell>
        <mxCell id="xmGOlnowos6n24Aj_uHa-40" value="RB" style="rhombus;whiteSpace=wrap;html=1;" parent="1" vertex="1">
          <mxGeometry x="1060" y="-630" width="80" height="80" as="geometry" />
        </mxCell>
        <mxCell id="xmGOlnowos6n24Aj_uHa-56" style="edgeStyle=orthogonalEdgeStyle;rounded=0;orthogonalLoop=1;jettySize=auto;html=1;entryX=0;entryY=0.5;entryDx=0;entryDy=0;" parent="1" source="xmGOlnowos6n24Aj_uHa-47" target="xmGOlnowos6n24Aj_uHa-35" edge="1">
          <mxGeometry relative="1" as="geometry" />
        </mxCell>
        <mxCell id="xmGOlnowos6n24Aj_uHa-57" style="edgeStyle=orthogonalEdgeStyle;rounded=0;orthogonalLoop=1;jettySize=auto;html=1;entryX=0;entryY=0.5;entryDx=0;entryDy=0;" parent="1" source="xmGOlnowos6n24Aj_uHa-47" target="xmGOlnowos6n24Aj_uHa-40" edge="1">
          <mxGeometry relative="1" as="geometry" />
        </mxCell>
        <mxCell id="xmGOlnowos6n24Aj_uHa-59" style="edgeStyle=orthogonalEdgeStyle;rounded=0;orthogonalLoop=1;jettySize=auto;html=1;" parent="1" source="xmGOlnowos6n24Aj_uHa-47" target="xmGOlnowos6n24Aj_uHa-43" edge="1">
          <mxGeometry relative="1" as="geometry" />
        </mxCell>
        <mxCell id="xmGOlnowos6n24Aj_uHa-60" style="edgeStyle=orthogonalEdgeStyle;rounded=0;orthogonalLoop=1;jettySize=auto;html=1;" parent="1" source="xmGOlnowos6n24Aj_uHa-47" target="xmGOlnowos6n24Aj_uHa-42" edge="1">
          <mxGeometry relative="1" as="geometry" />
        </mxCell>
        <mxCell id="xmGOlnowos6n24Aj_uHa-47" value="offense" style="shape=step;perimeter=stepPerimeter;whiteSpace=wrap;html=1;fixedSize=1;" parent="1" vertex="1">
          <mxGeometry x="570" y="-610" width="120" height="80" as="geometry" />
        </mxCell>
        <mxCell id="xmGOlnowos6n24Aj_uHa-49" value="defense" style="shape=trapezoid;perimeter=trapezoidPerimeter;whiteSpace=wrap;html=1;fixedSize=1;" parent="1" vertex="1">
          <mxGeometry x="560" y="-490" width="120" height="60" as="geometry" />
        </mxCell>
        <mxCell id="xmGOlnowos6n24Aj_uHa-52" value="special teams" style="shape=hexagon;perimeter=hexagonPerimeter2;whiteSpace=wrap;html=1;fixedSize=1;" parent="1" vertex="1">
          <mxGeometry x="570" y="-370" width="120" height="80" as="geometry" />
        </mxCell>
        <mxCell id="xmGOlnowos6n24Aj_uHa-69" value="" style="edgeStyle=orthogonalEdgeStyle;rounded=0;orthogonalLoop=1;jettySize=auto;html=1;" parent="1" source="xmGOlnowos6n24Aj_uHa-61" target="xmGOlnowos6n24Aj_uHa-68" edge="1">
          <mxGeometry relative="1" as="geometry" />
        </mxCell>
        <mxCell id="xmGOlnowos6n24Aj_uHa-61" value="player1" style="whiteSpace=wrap;html=1;" parent="1" vertex="1">
          <mxGeometry x="1140" y="-720" width="120" height="60" as="geometry" />
        </mxCell>
        <mxCell id="xmGOlnowos6n24Aj_uHa-67" value="" style="edgeStyle=orthogonalEdgeStyle;rounded=0;orthogonalLoop=1;jettySize=auto;html=1;" parent="1" source="xmGOlnowos6n24Aj_uHa-64" target="xmGOlnowos6n24Aj_uHa-66" edge="1">
          <mxGeometry relative="1" as="geometry" />
        </mxCell>
        <mxCell id="xmGOlnowos6n24Aj_uHa-64" value="player 2&amp;nbsp;" style="rounded=0;whiteSpace=wrap;html=1;" parent="1" vertex="1">
          <mxGeometry x="1140" y="-820" width="120" height="60" as="geometry" />
        </mxCell>
        <mxCell id="xmGOlnowos6n24Aj_uHa-107" style="edgeStyle=orthogonalEdgeStyle;rounded=0;orthogonalLoop=1;jettySize=auto;html=1;entryX=0.042;entryY=0.203;entryDx=0;entryDy=0;entryPerimeter=0;" parent="1" source="xmGOlnowos6n24Aj_uHa-66" target="xmGOlnowos6n24Aj_uHa-109" edge="1">
          <mxGeometry relative="1" as="geometry">
            <mxPoint x="1490" y="-739.9999999999998" as="targetPoint" />
          </mxGeometry>
        </mxCell>
        <mxCell id="xmGOlnowos6n24Aj_uHa-66" value="Stats" style="rhombus;whiteSpace=wrap;html=1;rounded=0;" parent="1" vertex="1">
          <mxGeometry x="1360" y="-830" width="80" height="80" as="geometry" />
        </mxCell>
        <mxCell id="xmGOlnowos6n24Aj_uHa-108" style="edgeStyle=orthogonalEdgeStyle;rounded=0;orthogonalLoop=1;jettySize=auto;html=1;entryX=0;entryY=0.5;entryDx=0;entryDy=0;" parent="1" source="xmGOlnowos6n24Aj_uHa-68" target="xmGOlnowos6n24Aj_uHa-109" edge="1">
          <mxGeometry relative="1" as="geometry">
            <mxPoint x="1490" y="-739.9999999999998" as="targetPoint" />
          </mxGeometry>
        </mxCell>
        <mxCell id="xmGOlnowos6n24Aj_uHa-68" value="Stats" style="rhombus;whiteSpace=wrap;html=1;" parent="1" vertex="1">
          <mxGeometry x="1360" y="-730" width="80" height="80" as="geometry" />
        </mxCell>
        <mxCell id="xmGOlnowos6n24Aj_uHa-92" style="edgeStyle=orthogonalEdgeStyle;rounded=0;orthogonalLoop=1;jettySize=auto;html=1;" parent="1" source="xmGOlnowos6n24Aj_uHa-71" target="xmGOlnowos6n24Aj_uHa-72" edge="1">
          <mxGeometry relative="1" as="geometry" />
        </mxCell>
        <mxCell id="xmGOlnowos6n24Aj_uHa-126" value="&lt;b&gt;&lt;i&gt;Input/Request&lt;/i&gt;&lt;/b&gt;" style="edgeLabel;html=1;align=center;verticalAlign=middle;resizable=0;points=[];" parent="xmGOlnowos6n24Aj_uHa-92" vertex="1" connectable="0">
          <mxGeometry x="-0.1076" y="1" relative="1" as="geometry">
            <mxPoint as="offset" />
          </mxGeometry>
        </mxCell>
        <mxCell id="xmGOlnowos6n24Aj_uHa-71" value="Actor" style="shape=umlActor;verticalLabelPosition=bottom;verticalAlign=top;html=1;outlineConnect=0;" parent="1" vertex="1">
          <mxGeometry x="2410" y="-812" width="30" height="60" as="geometry" />
        </mxCell>
        <mxCell id="xmGOlnowos6n24Aj_uHa-121" style="edgeStyle=orthogonalEdgeStyle;rounded=0;orthogonalLoop=1;jettySize=auto;html=1;" parent="1" source="xmGOlnowos6n24Aj_uHa-72" target="xmGOlnowos6n24Aj_uHa-94" edge="1">
          <mxGeometry relative="1" as="geometry">
            <mxPoint x="2010" y="-520" as="targetPoint" />
          </mxGeometry>
        </mxCell>
        <mxCell id="xmGOlnowos6n24Aj_uHa-72" value="Input" style="ellipse;shape=cloud;whiteSpace=wrap;html=1;" parent="1" vertex="1">
          <mxGeometry x="1900" y="-752" width="120" height="80" as="geometry" />
        </mxCell>
        <mxCell id="xmGOlnowos6n24Aj_uHa-81" value="Input" style="text;html=1;align=center;verticalAlign=middle;resizable=0;points=[];autosize=1;strokeColor=none;fillColor=none;" parent="1" vertex="1">
          <mxGeometry x="1765" y="-812" width="50" height="30" as="geometry" />
        </mxCell>
        <mxCell id="xmGOlnowos6n24Aj_uHa-100" style="edgeStyle=orthogonalEdgeStyle;rounded=0;orthogonalLoop=1;jettySize=auto;html=1;" parent="1" source="xmGOlnowos6n24Aj_uHa-94" target="xmGOlnowos6n24Aj_uHa-71" edge="1">
          <mxGeometry relative="1" as="geometry">
            <mxPoint x="2410" y="-750" as="targetPoint" />
          </mxGeometry>
        </mxCell>
        <mxCell id="xmGOlnowos6n24Aj_uHa-127" style="edgeStyle=orthogonalEdgeStyle;rounded=0;orthogonalLoop=1;jettySize=auto;html=1;entryX=0.375;entryY=-0.025;entryDx=0;entryDy=0;entryPerimeter=0;" parent="1" source="xmGOlnowos6n24Aj_uHa-94" target="xmGOlnowos6n24Aj_uHa-97" edge="1">
          <mxGeometry relative="1" as="geometry" />
        </mxCell>
        <mxCell id="xmGOlnowos6n24Aj_uHa-94" value="Baylor" style="shape=cylinder3;whiteSpace=wrap;html=1;boundedLbl=1;backgroundOutline=1;size=15;" parent="1" vertex="1">
          <mxGeometry x="1970" y="-520" width="60" height="80" as="geometry" />
        </mxCell>
        <mxCell id="xmGOlnowos6n24Aj_uHa-128" style="edgeStyle=orthogonalEdgeStyle;rounded=0;orthogonalLoop=1;jettySize=auto;html=1;" parent="1" source="xmGOlnowos6n24Aj_uHa-97" target="xmGOlnowos6n24Aj_uHa-98" edge="1">
          <mxGeometry relative="1" as="geometry" />
        </mxCell>
        <mxCell id="xmGOlnowos6n24Aj_uHa-130" style="edgeStyle=orthogonalEdgeStyle;rounded=0;orthogonalLoop=1;jettySize=auto;html=1;entryX=1;entryY=1;entryDx=0;entryDy=0;entryPerimeter=0;" parent="1" source="xmGOlnowos6n24Aj_uHa-97" target="xmGOlnowos6n24Aj_uHa-71" edge="1">
          <mxGeometry relative="1" as="geometry" />
        </mxCell>
        <mxCell id="xmGOlnowos6n24Aj_uHa-97" value="Cincinatti" style="shape=cylinder3;whiteSpace=wrap;html=1;boundedLbl=1;backgroundOutline=1;size=15;" parent="1" vertex="1">
          <mxGeometry x="1970" y="-370" width="60" height="80" as="geometry" />
        </mxCell>
        <mxCell id="xmGOlnowos6n24Aj_uHa-129" value="" style="edgeStyle=orthogonalEdgeStyle;rounded=0;orthogonalLoop=1;jettySize=auto;html=1;" parent="1" source="xmGOlnowos6n24Aj_uHa-98" target="xmGOlnowos6n24Aj_uHa-99" edge="1">
          <mxGeometry relative="1" as="geometry" />
        </mxCell>
        <mxCell id="xmGOlnowos6n24Aj_uHa-131" style="edgeStyle=orthogonalEdgeStyle;rounded=0;orthogonalLoop=1;jettySize=auto;html=1;" parent="1" source="xmGOlnowos6n24Aj_uHa-98" target="xmGOlnowos6n24Aj_uHa-71" edge="1">
          <mxGeometry relative="1" as="geometry">
            <mxPoint x="2470" y="-750" as="targetPoint" />
          </mxGeometry>
        </mxCell>
        <mxCell id="xmGOlnowos6n24Aj_uHa-98" value="BYU" style="shape=cylinder3;whiteSpace=wrap;html=1;boundedLbl=1;backgroundOutline=1;size=15;" parent="1" vertex="1">
          <mxGeometry x="1970" y="-250" width="60" height="80" as="geometry" />
        </mxCell>
        <mxCell id="xmGOlnowos6n24Aj_uHa-132" style="edgeStyle=orthogonalEdgeStyle;rounded=0;orthogonalLoop=1;jettySize=auto;html=1;" parent="1" source="xmGOlnowos6n24Aj_uHa-99" target="xmGOlnowos6n24Aj_uHa-71" edge="1">
          <mxGeometry relative="1" as="geometry" />
        </mxCell>
        <mxCell id="xmGOlnowos6n24Aj_uHa-99" value="Kstate" style="shape=cylinder3;whiteSpace=wrap;html=1;boundedLbl=1;backgroundOutline=1;size=15;" parent="1" vertex="1">
          <mxGeometry x="1970" y="-120" width="60" height="80" as="geometry" />
        </mxCell>
        <mxCell id="xmGOlnowos6n24Aj_uHa-111" style="edgeStyle=orthogonalEdgeStyle;rounded=0;orthogonalLoop=1;jettySize=auto;html=1;" parent="1" source="xmGOlnowos6n24Aj_uHa-109" target="xmGOlnowos6n24Aj_uHa-110" edge="1">
          <mxGeometry relative="1" as="geometry" />
        </mxCell>
        <mxCell id="xmGOlnowos6n24Aj_uHa-109" value="Data Store" style="shape=datastore;whiteSpace=wrap;html=1;" parent="1" vertex="1">
          <mxGeometry x="1530" y="-770" width="60" height="60" as="geometry" />
        </mxCell>
        <mxCell id="xmGOlnowos6n24Aj_uHa-112" style="edgeStyle=orthogonalEdgeStyle;rounded=0;orthogonalLoop=1;jettySize=auto;html=1;entryX=0.16;entryY=0.55;entryDx=0;entryDy=0;entryPerimeter=0;" parent="1" source="xmGOlnowos6n24Aj_uHa-110" target="xmGOlnowos6n24Aj_uHa-72" edge="1">
          <mxGeometry relative="1" as="geometry" />
        </mxCell>
        <mxCell id="xmGOlnowos6n24Aj_uHa-110" value="Transformations&lt;br&gt;&amp;amp; Algorithm&lt;span style=&quot;white-space: pre;&quot;&gt;&#x9;&lt;/span&gt;" style="strokeWidth=2;html=1;shape=mxgraph.flowchart.multi-document;whiteSpace=wrap;" parent="1" vertex="1">
          <mxGeometry x="1690" y="-765" width="130" height="70" as="geometry" />
        </mxCell>
      </root>
    </mxGraphModel>
  </diagram>
</mxfile>
